<svg xmlns="http://www.w3.org/2000/svg" viewBox="0 0 256 256" width="256" height="256">
  <defs>
    <linearGradient id="g1" x1="0%" y1="0%" x2="100%" y2="100%">
      <stop offset="0%" style="stop-color:#41D1FF;stop-opacity:1" />
      <stop offset="100%" style="stop-color:#BD34FE;stop-opacity:1" />
    </linearGradient>
  </defs>
  <path d="M128,0 C57.3,0 0,57.3 0,128 C0,198.7 57.3,256 128,256 C198.7,256 256,198.7 256,128 C256,57.3 198.7,0 128,0 Z M128,240 C66.1,240 16,189.9 16,128 C16,66.1 66.1,16 128,16 C189.9,16 240,66.1 240,128 C240,189.9 189.9,240 128,240 Z" fill="url(#g1)" />
  <text x="50%" y="54%" dy=".3em" text-anchor="middle" font-family="Arial, sans-serif" font-weight="bold" font-size="140" fill="url(#g1)">S</text>
</svg>